PathFileType	4	(X/Y/Z)	Patient4_TMGait_0pt3_01_left_15.trc.trc
DataRate	CameraRate	NumFrames	NumMarkers	Units	OrigDataRate	OrigDataStartFrame	OrigNumFrames
54.474708171206	54.474708171206	5	33	mm	54.474708171206	106	       141
Frame#	Time	Sacral			L.Shoulder			Chest			R.Shoulder			Neck			R.ASIS			L.ASIS			R.Thigh.Superior			R.Thigh.Lateral			R.Thigh.Inferior			R.Patella			L.Thigh.Superior			L.Thigh.Lateral			L.Thigh.Inferior			L.Patella			L.Shank.Superior			L.Shank.Lateral			L.Shank.Inferior			R.Shank.Superior			R.Shank.Lateral			R.Shank.Inferior			R.Heel			R.Midfoot.Superior			R.Midfoot.Lateral			R.Toe			L.Heel			L.Midfoot.Lateral			L.Midfoot.Superior			L.Toe			L.Elbow			L.Wrist			R.Elbow			R.Wrist			
		X1	Y1	Z1	X2	Y2	Z2	X3	Y3	Z3	X4	Y4	Z4	X5	Y5	Z5	X6	Y6	Z6	X7	Y7	Z7	X8	Y8	Z8	X9	Y9	Z9	X10	Y10	Z10	X11	Y11	Z11	X12	Y12	Z12	X13	Y13	Z13	X14	Y14	Z14	X15	Y15	Z15	X16	Y16	Z16	X17	Y17	Z17	X18	Y18	Z18	X19	Y19	Z19	X20	Y20	Z20	X21	Y21	Z21	X22	Y22	Z22	X23	Y23	Z23	X24	Y24	Z24	X25	Y25	Z25	X26	Y26	Z26	X27	Y27	Z27	X28	Y28	Z28	X29	Y29	Z29	X30	Y30	Z30	X31	Y31	Z31	X32	Y32	Z32	X33	Y33	Z33	

106	29.737500000000	800.204875038323	994.546658670578	586.151585758968	970.114880154552	1426.812085107913	405.174853893855	1066.981066602606	1365.224165588088	572.240523814276	972.406686501614	1436.560217162059	741.514363168706	947.802380572873	1492.103450739387	562.218693678947	1030.744510889146	940.512875462488	709.110125818633	1021.107022395773	960.515221768503	434.634485775804	1077.633381633424	739.434296749020	672.012908045845	995.449135535432	623.997080498672	719.600174684267	1076.290184021960	577.819121838381	640.337103457871	1076.022027487895	486.311143597288	640.347104267970	1105.820492441446	772.009697262579	471.446602249763	1064.253515403746	644.697042770934	392.402107855655	1160.329368632911	580.589763711809	464.237282803637	1170.889404307839	491.021967499395	454.340767430992	1104.662816498032	427.280974643350	436.192105079111	965.113123510507	386.812503062197	381.264753735715	955.693713891222	252.798041198749	423.026150349387	1040.263391444285	397.801762541683	640.010196278819	959.743725434407	296.252483986064	692.629574527214	995.675763408878	202.497995736299	625.030736924178	850.269618452429	44.514720316374	581.837513399784	1020.766174230531	97.982227263959	629.801849340838	928.912360542047	37.216528556049	660.628575162064	1137.624434830912	41.986038047812	664.840889935710	768.293758976546	181.179843227845	454.775949698842	825.122321991681	146.878649748966	369.082690982080	929.713026330533	152.702289888634	390.823498538232	1007.169831222739	45.687558761377	347.556035070998	957.152631942000	1069.089840362834	299.616901619506	1026.852669397302	818.095961757237	304.354608316743	991.668740299568	1097.035137540689	886.029023061503	1196.627339955402	941.562199209248	926.427951061260	
107	29.755857142857	799.429352856291	994.769926285844	589.268841788284	966.134746331416	1426.552335883215	405.938714559334	1065.743899328410	1365.557476379630	571.679274829505	973.666677387042	1437.180201580789	742.227097233981	946.186746880851	1492.226497472323	563.006977059181	1030.976268514469	940.315490245585	709.857701319036	1018.723124301022	961.192003030098	435.541215932351	1076.317893954016	738.751401898269	672.103860306221	993.857494654293	623.634067698757	720.340201018051	1073.766241143017	577.124277619775	640.456618215310	1072.860655016605	485.557934011244	640.354090539210	1105.291296705394	774.843310537033	473.071581812234	1066.216273222620	647.290709990945	393.573148308053	1162.700257344936	584.602753739353	465.899164608917	1175.646387370904	495.975522088798	455.654252762628	1112.633750984533	430.522552533820	437.045381202144	975.767006006239	382.690024890171	382.335201642752	974.189237627361	248.301337518275	423.753107438358	1036.581916729584	397.202539926399	640.180051609377	955.730777413427	295.966622447976	692.903360778465	990.921209566203	202.119683680470	625.029160703774	844.722840577096	44.494397861170	581.914664961557	1015.247535915761	97.963433126917	629.847190746080	923.381732760152	37.199838331072	660.696012795517	1132.094398374904	41.927274574884	664.878153312929	791.666529480932	164.930437529731	455.986542652802	850.451664872833	135.204362778675	369.807937304294	954.258644092821	147.762748930502	391.288538794719	1038.399991989117	46.795143545771	347.025365844377	942.226399129055	1069.258779749855	301.890090367222	997.726236235662	814.700390461494	306.836131455186	1004.473096179646	1099.119291855148	887.642222739313	1219.017407480528	956.513104760383	924.609613325101	
108	29.774214285714	798.688840936930	995.227807674565	592.169153094238	962.175856260067	1426.547035159899	406.669062928476	1064.488227602626	1366.053316669898	571.016560209321	974.943134807931	1437.964379450538	742.798342476490	944.545134775606	1492.521527099536	563.728541015554	1031.105793479976	940.218163969159	710.374789629974	1016.352510866001	962.035388349116	436.235785617440	1074.583014674602	738.103181920045	672.008193402262	991.707416122163	623.429935278959	720.996764660413	1070.600024900340	576.488812245455	640.511076611594	1068.916705329673	484.977161489628	640.346739326359	1104.134788611085	777.339995671860	474.219446343728	1067.109769173828	649.745530311661	394.192015071921	1163.773934590076	588.189577190871	466.935060305928	1179.016442983684	500.811221516083	456.362837217725	1119.623182348167	433.707060025543	437.449914649746	986.318455691399	377.727779456550	382.703016341657	993.227969644647	243.439123214675	424.173572885426	1032.331661489836	396.770318580368	640.369867248916	951.273108766944	295.734222358675	693.182573261283	985.911567609178	201.832974688659	625.077728466574	839.184154684964	44.456711840148	582.005705946429	1009.702530725005	97.920938533805	629.883102227813	917.844050671464	37.181956277233	660.780111163613	1126.555475511969	41.881326297902	664.919596078880	816.559547201816	147.926402206135	456.588718721887	877.467010751181	122.601045208400	370.338126292750	980.039725959248	142.309039478114	391.795941272987	1071.051295852071	47.874425930415	347.480890649846	927.026619102863	1070.159205486428	304.050565908588	969.628108966892	813.153884201454	309.425054200349	1017.330560235542	1101.789509269120	888.848636000004	1240.843224435095	972.941477214624	921.776968592329	
109	29.792571428571	797.974949220004	995.892075317204	594.864630010470	958.259410844483	1426.791584495870	407.366695918074	1063.223766344934	1366.687336959213	570.251960771725	976.243444944775	1438.885857160621	743.228107179630	942.899610492466	1492.972373531222	564.391109884246	1031.134755148646	940.220013574464	710.664580857065	1013.997793702924	963.013984201679	436.712011493248	1072.436764140931	737.488623057149	671.765037313638	989.000237005053	623.383769941438	721.579022357636	1066.796559063090	575.913487259405	640.519625313682	1064.206105110871	484.575067606635	640.340217698073	1102.411649138502	779.475988813599	474.904697062651	1066.998988130134	652.002266237245	394.264796071947	1163.663734249396	591.297706840982	467.334040408116	1181.086331822123	505.457391490219	456.492474506996	1125.623052655215	436.828446164341	437.449771251142	996.784427600517	372.245490301217	382.365886170761	1012.507577127605	238.626578503312	424.319559135758	1027.523733914193	396.505074488049	640.583495214789	946.378133036479	295.558314599696	693.480361023547	980.648089631165	201.642015129772	625.180678641710	833.651019262205	44.399741360401	582.114159008870	1004.131395135886	97.855408778748	629.909609442148	912.297636560094	37.164779848232	660.886468811220	1121.005741785078	41.851650408000	664.961385881304	842.584618848567	131.059744020528	456.565313264620	905.733945407853	109.853288025529	370.678729719232	1006.575010743497	136.850473993277	392.380514205177	1104.353891258666	49.212452663081	348.982571809108	911.740274701821	1071.785379891921	306.103433599691	942.821279232227	813.230670157866	312.099957581896	1030.193411401417	1105.029990324885	889.665109706613	1261.868118411503	990.727689709415	917.972604016207	
110	29.810928571429	797.271399371457	996.723419881843	597.356702603333	954.403651197542	1427.263238501236	408.026977432331	1061.956435702386	1367.425469992811	569.384499497945	977.564939821889	1439.907345060023	743.513351480828	941.268183070106	1493.550694410465	564.995601645567	1031.069048491128	940.311232957040	710.733642444966	1011.662486357237	964.084875161095	436.969059955868	1069.907534318167	736.903432755561	671.413560932733	985.761018394674	623.485676539686	722.092108605991	1062.386479429413	575.392708593540	640.496595883772	1058.782479929262	484.348035537231	640.343938121051	1100.195873403366	781.236334241147	475.147883283822	1065.958396239975	654.005731912048	393.818348418941	1162.499388283026	593.884755968302	467.100089358438	1181.953782480266	509.841769630261	456.088047370161	1130.627970249477	439.873778768432	437.098374857422	1007.124161621902	366.557612727885	381.367599350543	1031.682232697889	234.224794218903	424.234159559475	1022.194154618773	396.398287375777	640.818864605543	941.071951169038	295.439758796695	693.805439089713	975.144201079969	201.546664763382	625.337223754631	828.118535394478	44.323547070127	582.240277072848	998.536029829976	97.769527899005	629.927783246036	906.741480972509	37.149965693441	661.018280571915	1115.443898175727	41.840116197220	664.999148531520	869.256790080013	115.088182880530	455.953484993625	934.724945426658	97.665446425545	370.851530868622	1033.331531312087	131.851674301771	393.060541799431	1137.542669446531	51.093432596263	351.491605268597	896.578016341263	1074.088627429966	308.056064615752	917.521766405880	814.666853638086	314.838535414245	1043.000536700881	1108.804711416425	890.099409706761	1281.866058429068	1009.710897736055	913.253474895340	
